<svg width="12" height="12" viewBox="0 0 12 12" fill="none" xmlns="http://www.w3.org/2000/svg">
<path fill-rule="evenodd" clip-rule="evenodd" d="M6 0C6.17681 0 6.34638 0.070238 6.4714 0.195262C6.59643 0.320287 6.66667 0.489856 6.66667 0.666667V6C6.66667 6.17681 6.59643 6.34638 6.4714 6.4714C6.34638 6.59643 6.17681 6.66667 6 6.66667H0.666667C0.489856 6.66667 0.320287 6.59643 0.195262 6.4714C0.070238 6.34638 0 6.17681 0 6C0 5.82319 0.070238 5.65362 0.195262 5.5286C0.320287 5.40357 0.489856 5.33333 0.666667 5.33333H5.33333V0.666667C5.33333 0.489856 5.40357 0.320287 5.5286 0.195262C5.65362 0.070238 5.82319 0 6 0Z" fill="#FFC01F"/>
<path fill-rule="evenodd" clip-rule="evenodd" d="M5.33398 5.99967C5.33398 5.82286 5.40422 5.65329 5.52925 5.52827C5.65427 5.40325 5.82384 5.33301 6.00065 5.33301H11.334C11.5108 5.33301 11.6804 5.40325 11.8054 5.52827C11.9304 5.65329 12.0007 5.82286 12.0007 5.99967C12.0007 6.17649 11.9304 6.34606 11.8054 6.47108C11.6804 6.5961 11.5108 6.66634 11.334 6.66634H6.66732V11.333C6.66732 11.5098 6.59708 11.6794 6.47206 11.8044C6.34703 11.9294 6.17746 11.9997 6.00065 11.9997C5.82384 11.9997 5.65427 11.9294 5.52925 11.8044C5.40422 11.6794 5.33398 11.5098 5.33398 11.333V5.99967Z" fill="#FFC01F"/>
</svg>
