<svg width="376" height="772" viewBox="0 0 376 772" fill="none" xmlns="http://www.w3.org/2000/svg">
<path d="M256.503 672.506C180.734 741.426 80.7716 776.222 -25.6569 770.653L-25.6195 765.875C190.936 777.208 368.353 615.83 369.997 406.023C370.793 304.504 330.657 206.618 257.252 131.087C183.644 55.3456 85.3324 10.7713 -19.4524 5.28796L-19.415 0.510603C86.8096 5.87019 186.348 51.3051 260.976 128.095C335.603 204.885 376.144 303.589 375.336 406.701C374.123 508.995 332.273 603.587 256.503 672.506Z" stroke="url(#paint0_linear_272_32)" stroke-opacity="0.6"/>
<path d="M237.132 652.574C169.644 713.962 76.6643 749.522 -25.448 743.979L-25.4105 739.202C175.941 749.738 341.143 599.471 342.672 404.394C344.201 209.318 181.489 41.8905 -19.8624 31.3538L-19.8249 26.5764C184.403 37.2636 349.154 206.789 347.603 404.652C347.033 503.595 304.621 591.187 237.132 652.574Z" stroke="url(#paint1_linear_272_32)" stroke-opacity="0.6"/>
<path d="M217.966 632.852C152.755 692.169 66.1896 722.289 -25.4457 717.494L-25.4083 712.716C64.9943 717.447 149.912 687.639 214.089 629.264C278.472 570.701 314.25 490.329 314.73 402.932C315.416 315.347 280.72 231.486 217.511 166.445C154.098 101.194 69.5095 62.7151 -20.6892 58.1942L-20.6518 53.4168C70.9836 58.2121 156.802 97.1539 221.234 163.454C285.463 229.543 320.557 315.018 319.862 403.798C319.583 491.803 283.178 573.536 217.966 632.852Z" stroke="url(#paint2_linear_272_32)" stroke-opacity="0.6"/>
<path d="M198.799 613.13C141.248 665.479 62.0824 695.589 -24.8289 691.24L-24.7914 686.462C146.563 695.429 286.719 567.548 288.017 401.932C289.318 235.919 150.867 93.8564 -20.0765 84.9109L-20.0391 80.1336C153.987 89.0413 294.475 233.6 293.152 402.4C292.289 486.193 256.351 560.782 198.799 613.13Z" stroke="url(#paint3_linear_272_32)" stroke-opacity="0.6"/>
<path d="M179.633 593.408C127.05 641.238 54.688 668.716 -24.8268 664.754L-24.7893 659.977C131.361 668.148 259.299 551.775 260.485 400.492C261.671 249.208 135.661 119.546 -20.4894 111.375L-20.4519 106.597C138.574 114.919 266.828 246.889 265.62 400.959C265.021 477.398 232.216 545.579 179.633 593.408Z" stroke="url(#paint4_linear_272_32)" stroke-opacity="0.6"/>
<path d="M160.262 573.476C112.648 616.787 47.2934 641.844 -24.6178 638.081L-24.5803 633.303C116.366 640.679 232.09 535.416 233.16 398.863C233.678 332.776 207.662 269.084 159.542 219.569C111.625 170.264 47.5174 141.22 -20.6954 137.65L-20.658 132.873C49.1986 136.529 114.329 166.223 163.265 216.577C212.201 266.931 238.826 331.651 238.295 399.33C237.752 468.602 207.877 530.166 160.262 573.476Z" stroke="url(#paint5_linear_272_32)" stroke-opacity="0.6"/>
<path d="M141.096 553.754C98.4493 592.545 39.8989 614.971 -24.4087 611.407L-24.3713 606.63C101.578 613.021 204.674 519.245 205.836 397.234C206.587 275.201 105.044 170.716 -20.9014 163.926L-20.8639 159.149C107.754 165.879 211.951 272.694 210.767 397.492C210.277 459.996 183.742 514.964 141.096 553.754Z" stroke="url(#paint6_linear_272_32)" stroke-opacity="0.6"/>
<defs>
<linearGradient id="paint0_linear_272_32" x1="192.829" y1="436.995" x2="418.887" y2="278.418" gradientUnits="userSpaceOnUse">
<stop stop-color="#FFC01F"/>
<stop offset="1" stop-color="#E1E4EB" stop-opacity="0.47"/>
</linearGradient>
<linearGradient id="paint1_linear_272_32" x1="192.829" y1="436.995" x2="418.887" y2="278.418" gradientUnits="userSpaceOnUse">
<stop stop-color="#FFC01F"/>
<stop offset="1" stop-color="#E1E4EB" stop-opacity="0.47"/>
</linearGradient>
<linearGradient id="paint2_linear_272_32" x1="192.829" y1="436.995" x2="418.887" y2="278.418" gradientUnits="userSpaceOnUse">
<stop stop-color="#FFC01F"/>
<stop offset="1" stop-color="#E1E4EB" stop-opacity="0.47"/>
</linearGradient>
<linearGradient id="paint3_linear_272_32" x1="192.829" y1="436.995" x2="418.887" y2="278.418" gradientUnits="userSpaceOnUse">
<stop stop-color="#FFC01F"/>
<stop offset="1" stop-color="#E1E4EB" stop-opacity="0.47"/>
</linearGradient>
<linearGradient id="paint4_linear_272_32" x1="192.829" y1="436.995" x2="418.887" y2="278.418" gradientUnits="userSpaceOnUse">
<stop stop-color="#FFC01F"/>
<stop offset="1" stop-color="#E1E4EB" stop-opacity="0.47"/>
</linearGradient>
<linearGradient id="paint5_linear_272_32" x1="192.829" y1="436.995" x2="418.887" y2="278.418" gradientUnits="userSpaceOnUse">
<stop stop-color="#FFC01F"/>
<stop offset="1" stop-color="#E1E4EB" stop-opacity="0.47"/>
</linearGradient>
<linearGradient id="paint6_linear_272_32" x1="192.829" y1="436.995" x2="418.887" y2="278.418" gradientUnits="userSpaceOnUse">
<stop stop-color="#FFC01F"/>
<stop offset="1" stop-color="#E1E4EB" stop-opacity="0.47"/>
</linearGradient>
</defs>
</svg>
